<svg width="140" height="38" fill="none" xmlns="http://www.w3.org/2000/svg"><path d="M11.394 22.563v5.048c0 2.523-1.12 3.433-2.9 3.433-1.78 0-2.899-.91-2.899-3.433V8.53c0-2.524 1.12-3.484 2.9-3.484 1.78 0 2.899.96 2.899 3.483v3.786h5.29V8.884C16.684 3.23 13.835 0 8.342 0 2.848 0 0 3.23 0 8.884v18.373c0 5.654 2.848 8.885 8.342 8.885 5.493 0 8.342-3.231 8.342-8.885v-4.694h-5.29ZM32.503.403 38.2 35.739h-5.646l-.967-6.41h-6.866l-.967 6.41h-5.137L24.314.404h8.189Zm-4.425 6.26-2.645 17.87h5.391L28.18 6.661H28.078ZM58.19 35.738h-5.697c-.305-.909-.509-1.465-.509-4.341v-5.553c0-3.28-1.119-4.492-3.662-4.492h-1.933v14.386h-5.595V.404h8.444c5.798 0 8.29 2.675 8.29 8.127v2.776c0 3.634-1.17 5.956-3.662 7.117 2.798 1.262 3.713 3.886 3.713 7.572v5.451c0 1.717.051 2.978.61 4.291h.001ZM49.085 5.451h-2.696v10.854h2.187c2.086 0 3.357-.908 3.357-3.736V9.086c0-2.523-.864-3.634-2.848-3.634ZM75.242.404l5.697 35.334h-5.646l-.966-6.41H67.46l-.966 6.41h-5.138L67.053.404h8.19-.001Zm-4.425 6.259-2.645 17.87h5.392L70.919 6.661h-.102ZM86.115.403h-5.646l5.493 35.335h8.342L99.797.404H94.66l-4.222 28.821h-.102L86.115.404Zm27.098 0 5.697 35.335h-5.646l-.966-6.41h-6.867l-.967 6.41h-5.137L105.024.404h8.189Zm-4.425 6.26-2.645 17.87h5.392L108.89 6.661h-.102Zm25.464 29.075H140V.404h-4.985v21.15h-.102L129.267.403h-7.019v35.334h5.036V10.145h.101l6.867 25.593Z" fill="#9C9C9C"/></svg>