<svg width="152" height="39" fill="none" xmlns="http://www.w3.org/2000/svg"><path fill-rule="evenodd" clip-rule="evenodd" d="M23.024 16.721h2.717c2.808 0 4.325 3.267 2.496 5.384l-2.66 3.076a7.325 7.325 0 0 0 2.719 4.62 7.448 7.448 0 0 0 10.021-.764 7.302 7.302 0 0 0 1.975-4.979 2.43 2.43 0 0 1 .722-1.73 2.465 2.465 0 0 1 1.744-.715c.654 0 1.28.258 1.743.716a2.44 2.44 0 0 1 .724 1.729c0 2.566-.815 5.067-2.328 7.148a12.322 12.322 0 0 1-4.336 3.705 12.426 12.426 0 0 1-11.131.105 12.328 12.328 0 0 1-4.406-3.623 12.327 12.327 0 0 1-4.406 3.623 12.429 12.429 0 0 1-11.131-.105 12.323 12.323 0 0 1-4.336-3.705 12.153 12.153 0 0 1-2.329-7.148 2.427 2.427 0 0 1 .722-1.73 2.464 2.464 0 0 1 1.745-.715c.654 0 1.28.258 1.743.716a2.44 2.44 0 0 1 .724 1.729 7.3 7.3 0 0 0 1.966 4.99 7.415 7.415 0 0 0 3.504 2.103 7.459 7.459 0 0 0 4.094-.068 7.409 7.409 0 0 0 3.432-2.216 7.323 7.323 0 0 0 1.72-3.687l-2.662-3.076c-1.828-2.116-.312-5.382 2.5-5.382h2.714Z" fill="#9C9C9C"/><path d="M34.535 10.201a4.964 4.964 0 0 0 3.488-1.43 4.861 4.861 0 0 0 1.07-5.332 4.891 4.891 0 0 0-1.07-1.588 4.933 4.933 0 0 0-3.488-1.43 4.963 4.963 0 0 0-3.487 1.43 4.86 4.86 0 0 0 0 6.918 4.963 4.963 0 0 0 3.487 1.431Zm-23.023 0a4.963 4.963 0 0 0 3.487-1.43 4.889 4.889 0 0 0 1.446-3.46 4.86 4.86 0 0 0-1.446-3.46A4.963 4.963 0 0 0 11.512.42a4.963 4.963 0 0 0-3.488 1.431 4.86 4.86 0 0 0 0 6.92 4.933 4.933 0 0 0 3.488 1.43Zm67.933-8.586c.76 0 1.384.216 1.872.646.488.431.732.997.732 1.697v24.15c0 .727-.23 1.306-.692 1.736-.46.431-1.071.646-1.83.646-.76 0-1.37-.215-1.832-.645-.461-.431-.692-1.01-.692-1.736v-1.01c-.597 1.103-1.465 1.964-2.605 2.584-1.112.619-2.387.928-3.825.928-1.71 0-3.242-.43-4.598-1.292-1.33-.861-2.374-2.073-3.134-3.635-.733-1.588-1.1-3.405-1.1-5.45 0-2.047.367-3.837 1.1-5.372.76-1.535 1.804-2.72 3.134-3.554 1.329-.835 2.862-1.252 4.598-1.252 1.438 0 2.713.296 3.826.889a6.188 6.188 0 0 1 2.563 2.503v-9.57c0-.674.217-1.213.65-1.617.463-.43 1.073-.646 1.833-.646Zm-7.53 25.08c1.629 0 2.877-.552 3.745-1.657.895-1.103 1.343-2.68 1.343-4.724 0-2.047-.448-3.609-1.343-4.684-.868-1.105-2.102-1.658-3.703-1.658-1.628 0-2.89.54-3.785 1.617s-1.343 2.625-1.343 4.644c0 2.046.448 3.634 1.343 4.766.895 1.13 2.143 1.696 3.744 1.696Zm24.442 3.916c-2.034 0-3.825-.416-5.371-1.251-1.52-.834-2.7-2.032-3.541-3.594-.841-1.562-1.262-3.38-1.262-5.452 0-2.073.42-3.878 1.262-5.412.84-1.562 2.02-2.76 3.54-3.594 1.547-.835 3.338-1.252 5.372-1.252 2.035 0 3.812.416 5.331 1.252a8.413 8.413 0 0 1 3.541 3.594c.841 1.534 1.262 3.339 1.262 5.412 0 2.074-.421 3.89-1.262 5.452a8.413 8.413 0 0 1-3.541 3.594c-1.519.834-3.296 1.251-5.33 1.251h-.001Zm-.04-3.916c1.655 0 2.916-.54 3.784-1.616.869-1.077 1.303-2.666 1.303-4.765 0-2.073-.434-3.648-1.303-4.725-.868-1.104-2.116-1.656-3.744-1.656-1.627 0-2.89.552-3.784 1.656-.868 1.077-1.303 2.652-1.303 4.725 0 2.1.434 3.688 1.303 4.765.868 1.077 2.116 1.616 3.744 1.616Zm31.221-16.558c.76 0 1.37.215 1.831.645.462.432.692 1.01.692 1.737V28.47c0 3.096-.868 5.438-2.604 7.028-1.737 1.588-4.3 2.381-7.692 2.381-2.957 0-5.426-.55-7.406-1.655-1.004-.592-1.506-1.306-1.506-2.14 0-.593.136-1.063.407-1.413a1.43 1.43 0 0 1 1.139-.526c.245 0 .543.054.896.162.352.134.719.283 1.098.444.85.359 1.719.669 2.605.929.787.215 1.682.323 2.686.323 3.554 0 5.331-1.722 5.331-5.17V26.25c-.597 1.105-1.465 1.965-2.604 2.585-1.14.592-2.442.888-3.907.888-1.737 0-3.283-.404-4.64-1.21-1.329-.836-2.373-1.993-3.133-3.474-.76-1.481-1.14-3.19-1.14-5.13 0-1.937.367-3.647 1.099-5.128.76-1.508 1.818-2.665 3.174-3.473 1.357-.835 2.903-1.252 4.64-1.252 1.465 0 2.767.31 3.907.928a6.07 6.07 0 0 1 2.604 2.545v-1.05c0-.7.231-1.265.692-1.697.461-.43 1.072-.645 1.831-.645Zm-7.691 15.67c1.628 0 2.889-.527 3.784-1.575.923-1.051 1.384-2.491 1.384-4.322 0-1.858-.461-3.312-1.384-4.362-.895-1.05-2.156-1.575-3.784-1.575-1.601 0-2.863.525-3.785 1.575-.922 1.05-1.384 2.504-1.384 4.362 0 1.83.462 3.27 1.384 4.322.922 1.05 2.184 1.574 3.785 1.574Zm22.686 4.804c-2.957 0-5.344-.578-7.162-1.736-.868-.511-1.302-1.239-1.302-2.18 0-.54.149-.97.447-1.293.299-.35.665-.526 1.099-.526.461 0 1.099.217 1.913.648.868.403 1.655.713 2.36.928.733.216 1.655.323 2.767.323 1.14 0 2.022-.189 2.646-.566.651-.377.976-.9.976-1.575 0-.456-.135-.82-.407-1.09-.244-.27-.705-.511-1.383-.727-.652-.242-1.655-.51-3.012-.807-2.414-.485-4.151-1.171-5.209-2.06-1.031-.888-1.546-2.113-1.546-3.674a5.19 5.19 0 0 1 1.058-3.192c.705-.968 1.668-1.709 2.889-2.22 1.248-.539 2.659-.809 4.232-.809 1.14 0 2.239.15 3.297.445a9.68 9.68 0 0 1 2.849 1.21c.868.54 1.302 1.253 1.302 2.142 0 .538-.149.997-.448 1.373-.298.35-.665.526-1.099.526-.298 0-.597-.055-.895-.162-.357-.18-.71-.369-1.058-.566-.787-.404-1.465-.7-2.035-.888-.57-.215-1.275-.323-2.116-.323-1.004 0-1.804.202-2.401.605-.57.404-.855.957-.855 1.656 0 .673.299 1.185.896 1.535.597.35 1.75.7 3.459 1.05 1.818.377 3.242.807 4.273 1.292 1.031.485 1.763 1.091 2.197 1.817.462.728.692 1.657.692 2.787 0 1.83-.773 3.299-2.319 4.402-1.52 1.104-3.555 1.655-6.105 1.655Z" fill="#9C9C9C"/></svg>