<svg width="139" height="50" fill="none" xmlns="http://www.w3.org/2000/svg"><g clip-path="url(#a)"><path d="M24.912 10.702 20.31 38.784h-6.612l1.68-10.14H8.256L6.61 38.784H0l4.639-28.082h6.575L9.242 22.558h7.122l1.974-11.856h6.575-.001Zm13.561 28.082.22-6.123h-6.1l-1.79 6.123h-6.977l9.388-28.082h12.053l.147 28.082H38.473Zm-1.497-21.257-2.885 9.907h4.785l.401-9.906h-2.301Zm36.807-6.825L69.18 38.784h-6.612l-4.601-15.366-2.484 15.367H48.87l4.639-28.083h6.794l4.53 14.353 2.373-14.353h6.577Zm15.425 0c3.19 0 5.467.858 6.83 2.574.999 1.3 1.497 2.925 1.497 4.875 0 .703-.06 1.443-.181 2.223l-1.425 8.698c-.487 2.938-1.681 5.292-3.58 7.06-1.9 1.769-4.359 2.652-7.38 2.652H74.34l4.64-28.082h10.228Zm-2.302 6.085h-2.374l-2.593 15.912h3.47c1.144 0 2.033-.326 2.666-.975.658-.677 1.108-1.768 1.35-3.276l1.061-6.397a9.406 9.406 0 0 0 .146-1.56c0-2.472-1.241-3.705-3.726-3.705Zm30.206 21.997H98.775l4.641-28.082h18.337l-1.023 6.085h-11.762l-.84 5.265h9.716l-1.022 6.084h-9.717l-.73 4.564h11.762l-1.024 6.084h-.001Zm20.865 0H121.32l4.64-28.082h6.575L128.919 32.7H139l-1.023 6.084ZM73.471 43.78h63.543l-1.985 5.837H71.486l1.985-5.837ZM6.95 0h69.5l-1.986 5.837h-69.5L6.95 0Z" fill="#9C9C9C"/></g><defs><clipPath id="a"><path fill="#fff" d="M0 0h139v49.618H0z"/></clipPath></defs></svg>