<svg width="208" height="41" fill="none" xmlns="http://www.w3.org/2000/svg"><g clip-path="url(#a)"><path fill-rule="evenodd" clip-rule="evenodd" d="M13.935 37.847a.875.875 0 0 1-.685-.341c-.228-.301-.382-.65-.45-1.021a13.757 13.757 0 0 1-.25-1.43c-.07-.618-.105-1.24-.106-1.862-.02-1.367-.016-2.735.014-4.102.018-.84.026-1.495.026-1.967V11.492c0-.77.005-1.356.014-1.758.009-.401.04-.856.091-1.363.03-.377.096-.75.199-1.114.1-.281.233-.55.395-.8.15-.263.368-.48.633-.63a9.53 9.53 0 0 1 .949-.406c.417-.154.85-.264 1.291-.328.574-.083 1.15-.153 1.728-.21V3.439l-.45-.447H1.412L.99 3.44V4.67c2.672.158 4.166.91 4.482 2.256.184 1.136.272 2.285.264 3.436v23.942a23.86 23.86 0 0 1-.159 3.725c-.073.192-.18.369-.316.524a9.826 9.826 0 0 1-.645.694 8.5 8.5 0 0 0-.514.538v.918c13.587 0 21.997.087 25.23.263l1.135-3.803-.712-.499c-5.25.656-10.53 1.05-15.819 1.181h-.001v.001Zm25.256-10.962a.729.729 0 0 1-.158.026c-.263 0-.395-.095-.395-.288.001-.869.067-1.737.198-2.597.148-.936.395-1.855.738-2.74a10.38 10.38 0 0 1 1.347-2.517 6.319 6.319 0 0 1 2.263-1.86 6.371 6.371 0 0 1 2.865-.645c.716-.04 1.43.107 2.073.424.643.318 1.19.795 1.591 1.386a7.16 7.16 0 0 1 1.24 4.143c-.004.27-.09.534-.248.754-.158.22-.38.387-.636.479a43.271 43.271 0 0 1-4.416 1.495 298.856 298.856 0 0 0-6.3 1.916.745.745 0 0 0-.162.024Zm15.66 8.183c-3.165 1.905-5.898 2.858-8.198 2.858a7.537 7.537 0 0 1-4.377-1.285 7.794 7.794 0 0 1-2.755-3.213 9.853 9.853 0 0 1-.883-4.156c11.495-3.548 17.295-5.324 17.4-5.324a1.95 1.95 0 0 0 1.15-.71c.285-.366.429-.82.405-1.283a7.434 7.434 0 0 0-.883-3.697 6.42 6.42 0 0 0-2.386-2.452 11.608 11.608 0 0 0-3.256-1.285 16.745 16.745 0 0 0-3.785-.407 16.066 16.066 0 0 0-6.642 1.325 12.725 12.725 0 0 0-4.758 3.54 16.064 16.064 0 0 0-2.755 4.983 17.696 17.696 0 0 0-.95 5.782c0 4.04 1.1 7.064 3.296 9.075 1.986 1.836 4.79 2.752 8.41 2.752a13.656 13.656 0 0 0 5.972-1.441 46.164 46.164 0 0 0 6.393-3.83l-.577-1.021-.82-.211h-.001ZM90.36 7.415a7.68 7.68 0 0 0-3.876-4.17 16.475 16.475 0 0 0-6.986-1.258 20.667 20.667 0 0 0-5.18.63 15.829 15.829 0 0 0-4.456 1.888 9.112 9.112 0 0 0-3.203 3.423 10.163 10.163 0 0 0-1.187 4.97c0 1.237.302 2.456.883 3.552a9.935 9.935 0 0 0 2.215 2.873c.978.856 2.017 1.64 3.11 2.347a36.306 36.306 0 0 0 3.402 1.992c1.1.561 2.181 1.156 3.243 1.785.88.494 1.706 1.078 2.465 1.743 1.95 1.801 2.926 3.514 2.926 5.14a6.282 6.282 0 0 1-.535 2.51 6.324 6.324 0 0 1-1.495 2.092 6.675 6.675 0 0 1-2.23 1.503 6.717 6.717 0 0 1-2.647.504 7.006 7.006 0 0 1-3.082-.617 6.954 6.954 0 0 1-2.494-1.9 8.6 8.6 0 0 1-2.148-5.746l-1.027-.367-5.246 5.848a12.256 12.256 0 0 0 4.72 4.026 13.933 13.933 0 0 0 6.195 1.404 19.74 19.74 0 0 0 5.774-.893 21.388 21.388 0 0 0 5.326-2.426 12.825 12.825 0 0 0 3.914-3.88 9.052 9.052 0 0 0 1.516-4.997 7.695 7.695 0 0 0-.5-2.792 8.913 8.913 0 0 0-1.292-2.308 11.506 11.506 0 0 0-2.202-2.059 28.193 28.193 0 0 0-2.808-1.85 96.664 96.664 0 0 0-3.532-1.902c-.83-.4-1.648-.823-2.452-1.272-.76-.441-1.5-.916-2.218-1.423a11.09 11.09 0 0 1-2.002-1.747 8.073 8.073 0 0 1-1.266-2.046 6.192 6.192 0 0 1-.527-2.53 5.29 5.29 0 0 1 3.41-5.067 5.47 5.47 0 0 1 2.203-.362 6.36 6.36 0 0 1 2.719.483c.859.359 1.628.9 2.251 1.588a9.14 9.14 0 0 1 2.254 5.01l.923.288 5.142-3.987Zm25.638 10.058a5.315 5.315 0 0 0-1.977-1.967 9.571 9.571 0 0 0-2.61-1.01 13.476 13.476 0 0 0-2.992-.314 15.73 15.73 0 0 0-5.629.958 12.243 12.243 0 0 0-4.165 2.53 13.732 13.732 0 0 0-2.742 3.71 17.535 17.535 0 0 0-1.569 4.393 22.742 22.742 0 0 0-.474 4.694 13.7 13.7 0 0 0 .566 3.958c.37 1.243.945 2.417 1.7 3.475a7.833 7.833 0 0 0 3.099 2.517c1.418.643 2.963.962 4.521.931 4.939 0 9.579-2.16 13.92-6.477l-.527-.761-.659-.157c-3.216 2.465-6.187 3.698-8.911 3.698a6.342 6.342 0 0 1-2.939-.67 5.918 5.918 0 0 1-2.099-1.729 10.458 10.458 0 0 1-1.332-2.44 13 13 0 0 1-.751-2.686c-.14-.868-.21-1.745-.211-2.623.006-1.117.103-2.23.29-3.33.207-1.226.516-2.432.923-3.607a7.53 7.53 0 0 1 1.872-3.043 4.042 4.042 0 0 1 2.9-1.192c.72-.04 1.438.121 2.071.464a3.862 3.862 0 0 1 1.514 1.477 9.149 9.149 0 0 1 1.16 4.773l.923.367 4.983-2.936a6.612 6.612 0 0 0-.855-3.003Zm9.663 7.802c.134-1.03.368-2.044.699-3.029a11.28 11.28 0 0 1 1.278-2.714 6.09 6.09 0 0 1 2.044-1.901 5.661 5.661 0 0 1 2.913-.747 5.853 5.853 0 0 1 3.15.825 5.467 5.467 0 0 1 2.043 2.256c.477.96.822 1.977 1.027 3.029.217 1.13.324 2.282.317 3.435 0 1.049-.009 1.923-.027 2.622a31.659 31.659 0 0 1-.184 2.519 15.047 15.047 0 0 1-.435 2.438c-.207.704-.476 1.389-.804 2.046a5.142 5.142 0 0 1-1.279 1.704 6.338 6.338 0 0 1-1.872 1.049 7.303 7.303 0 0 1-2.57.42 4.702 4.702 0 0 1-2.703-.814 6.033 6.033 0 0 1-1.884-2.006 12.327 12.327 0 0 1-1.134-2.74c-.28-.94-.483-1.9-.607-2.873a21.62 21.62 0 0 1-.158-2.53c-.001-1 .062-1.998.186-2.99Zm-3.269 13.559c1.915 1.73 4.956 2.596 9.122 2.596 1.54.01 3.076-.166 4.574-.525a13.557 13.557 0 0 0 3.978-1.691 11.75 11.75 0 0 0 3.177-2.925 13.612 13.612 0 0 0 2.083-4.353c.532-1.895.789-3.855.765-5.822a10.847 10.847 0 0 0-.869-4.617 10.931 10.931 0 0 0-2.743-3.828c-2.198-1.957-5.388-2.936-9.57-2.936-4.183 0-7.628 1.285-10.335 3.855a12.873 12.873 0 0 0-3.077 4.434 12.79 12.79 0 0 0-.983 5.296c0 4.686 1.291 8.19 3.875 10.516h.003Zm41.258-20.77c1.406 0 2.408.28 3.006.839a4.574 4.574 0 0 1 1.014 2.362c.221 1.022.358 2.062.409 3.107.035.918.053 2.103.053 3.553a443.614 443.614 0 0 1-.039 5.652c-.009.568-.005 1.236.012 2.007.005.573.04 1.147.106 1.716.053.378.123.788.211 1.233.061.373.186.731.369 1.062.158.263.352.502.578.71a4.101 4.101 0 0 0 2.899 1.047c1.319 0 2.83-.665 4.535-1.992a49.497 49.497 0 0 0 4.06-3.752l-.606-.893h-.633a6.456 6.456 0 0 1-3.611 1.39 2.079 2.079 0 0 1-1.53-.55 2.04 2.04 0 0 1-.462-.51 3.746 3.746 0 0 1-.276-1.076 15.094 15.094 0 0 1-.132-2.268c0-.577.031-1.509.092-2.793.049-.913.08-1.827.093-2.741v-1.574c.017-1.696.013-2.87-.013-3.528a24.759 24.759 0 0 0-.304-2.674 4.85 4.85 0 0 0-.817-2.334 5.482 5.482 0 0 0-1.635-1.206 5.772 5.772 0 0 0-2.689-.565c-3.093 0-6.679 1.26-10.756 3.777l-.633-.236a4.951 4.951 0 0 0-.909-2.687c-.519-.675-1.411-1.01-2.676-1.01-.758.01-1.51.137-2.228.38-.835.278-1.632.657-2.374 1.127-.8.5-1.494.963-2.083 1.39-.589.428-1.27.948-2.043 1.56l.975 1.285c.179-.115.36-.228.541-.34.307-.192.575-.35.804-.472.228-.122.501-.266.817-.433.283-.153.579-.28.884-.383.233-.08.477-.124.724-.131.305-.007.606.07.87.223.268.176.47.434.578.735.132.317.246.64.342.97.108.443.17.895.185 1.35.036.596.057 1.077.064 1.443.008.366.012.917.013 1.652v.447c0 1.712-.132 6.957-.395 15.733l.659.368 5.932-1.705c-.176-.751-.308-3.12-.396-7.105-.087-3.899-.13-7.798-.128-11.698 3.058-1.643 5.237-2.465 6.538-2.465l.005.002Zm25.573 8.94a.703.703 0 0 1-.158.028c-.263 0-.395-.096-.396-.287.001-.87.067-1.738.199-2.597.148-.937.395-1.856.737-2.741.331-.896.783-1.744 1.345-2.518a6.317 6.317 0 0 1 2.263-1.86 6.364 6.364 0 0 1 2.865-.645 4.163 4.163 0 0 1 2.073.424 4.122 4.122 0 0 1 1.591 1.386 7.153 7.153 0 0 1 1.239 4.143c-.004.27-.09.533-.248.753-.158.22-.379.388-.635.48a43.35 43.35 0 0 1-4.415 1.495 298.3 298.3 0 0 0-6.301 1.916.797.797 0 0 0-.158.025h-.001v-.001Zm15.66 8.184c-3.165 1.906-5.898 2.859-8.199 2.858a7.545 7.545 0 0 1-4.377-1.285 7.79 7.79 0 0 1-2.754-3.212 9.861 9.861 0 0 1-.884-4.158c11.495-3.547 17.295-5.322 17.401-5.322a1.957 1.957 0 0 0 1.15-.71c.285-.367.429-.822.405-1.284a7.438 7.438 0 0 0-.883-3.697 6.419 6.419 0 0 0-2.386-2.452 11.618 11.618 0 0 0-3.256-1.285 16.745 16.745 0 0 0-3.786-.407 16.066 16.066 0 0 0-6.64 1.325 12.728 12.728 0 0 0-4.758 3.54 16.049 16.049 0 0 0-2.755 4.983 17.668 17.668 0 0 0-.949 5.783c0 4.039 1.098 7.062 3.295 9.074 1.986 1.836 4.789 2.753 8.41 2.753a13.655 13.655 0 0 0 5.972-1.442 46.244 46.244 0 0 0 6.393-3.83l-.577-1.021-.822-.211Z" fill="#9C9C9C"/></g><defs><clipPath id="a"><path fill="#fff" d="M0 0h208v40.687H0z"/></clipPath></defs></svg>