<svg width="148" height="36" fill="none" xmlns="http://www.w3.org/2000/svg"><g clip-path="url(#a)"><path d="M48.624 35.249V0h-8.976L20.88 27.199l-3.168-3.954c5.664-.857 8.832-5.811 8.832-11.098 0-5.05-2.784-9.289-6.528-10.909C18.144.428 15.36 0 11.664 0H0v35.249h8.688V23.864h.096l8.208 11.385h9.168l3.12-5.097h10.272v5.097h9.072ZM8.688 17.719V7.908h3.456c3.408 0 5.712 1.715 5.712 4.764 0 3.239-2.16 5.049-5.76 5.049H8.688Zm30.864 5.288H33.6l5.856-9.765h.096v9.765ZM85.03 35.249V0h-8.688l.384 22.293L62.902 0h-7.824v35.249h8.688l-.24-21.53 13.632 21.53h7.872Zm26.198 0v-7.907h-11.04v-6.05h10.704v-7.907h-10.704V7.907h11.04V0H91.5v35.249h19.728Zm36.062 0-12.528-17.672L146.522 0h-9.504l-10.032 15.862h-.096V0h-9.072v35.249h9.072V20.006h.096l9.696 15.243h10.608Z" fill="#9C9C9C"/></g><defs><clipPath id="a"><path fill="#fff" d="M0 0h148v35.725H0z"/></clipPath></defs></svg>