<svg width="200" height="49" fill="none" xmlns="http://www.w3.org/2000/svg"><g clip-path="url(#a)" fill="#9C9C9C"><path d="M54.381 43.678c-3.32 0-5.865-.564-7.636-1.691-1.74-1.16-2.609-2.851-2.609-5.075 0-1.127.38-2.052 1.138-2.773.791-.75 1.803-1.127 3.036-1.127.727.032 1.28.218 1.66.564.38.313.57.61.57.893 0 .03-.159.14-.475.328-.316.189-.6.47-.854.846-.253.377-.38.893-.38 1.55 0 1.474.444 2.617 1.329 3.431.917.783 2.324 1.174 4.221 1.174 1.297 0 2.435-.25 3.416-.75.98-.502 1.723-1.16 2.229-1.975.537-.845.806-1.722.806-2.631 0-1.128-.332-2.098-.996-2.913a7.789 7.789 0 0 0-2.371-2.02c-.95-.564-2.246-1.207-3.89-1.928-1.897-.845-3.43-1.612-4.6-2.302a9.869 9.869 0 0 1-2.99-2.725c-.821-1.159-1.232-2.584-1.232-4.276 0-2.725.932-4.761 2.798-6.108 1.898-1.348 4.38-2.02 7.447-2.02 2.403 0 4.49.5 6.261 1.503 1.803 1.002 2.704 2.475 2.704 4.416 0 1.128-.396 2.068-1.186 2.82-.759.72-1.755 1.08-2.988 1.08-.728-.03-1.281-.204-1.66-.516-.38-.345-.57-.658-.57-.94 0-.032.206-.14.617-.33.443-.187.822-.469 1.138-.845.348-.376.522-.893.522-1.55 0-1.159-.458-2.068-1.375-2.726-.886-.658-2.024-.986-3.416-.986-1.928 0-3.399.454-4.41 1.362-.981.877-1.471 1.974-1.471 3.29 0 1.095.3 2.02.901 2.771.6.721 1.565 1.442 2.893 2.162 1.152.6 2.322 1.165 3.51 1.692 2.024.908 3.621 1.738 4.791 2.49a9.581 9.581 0 0 1 2.988 2.961c.822 1.22 1.234 2.74 1.234 4.557 0 1.567-.506 2.992-1.518 4.277-.98 1.252-2.325 2.239-4.032 2.96-1.676.72-3.526 1.08-5.55 1.08Zm24.013-.375c-2.15 0-3.858-.643-5.123-1.927-1.265-1.284-1.897-2.976-1.897-5.075v-8.693c0-.814-.032-1.41-.095-1.786-.031-.375-.221-.704-.57-.986-.347-.282-.932-.423-1.754-.423-.38 0-.664-.047-.854-.14-.19-.126-.284-.393-.284-.8 0-.188.063-.36.19-.516.126-.188.316-.297.569-.33 1.992-.282 3.7-.689 5.122-1.222.443-.155.806-.25 1.091-.282h.142c.506 0 .76.298.76.894v14.237c0 1.441.458 2.553 1.375 3.336a4.867 4.867 0 0 0 3.178 1.128c1.486 0 2.75-.36 3.794-1.081 1.044-.72 1.74-1.44 2.087-2.161v-9.867c0-.815-.031-1.41-.094-1.787-.032-.375-.222-.704-.57-.986-.348-.282-.933-.423-1.755-.423-.38 0-.664-.047-.853-.14-.19-.126-.285-.393-.285-.8 0-.188.063-.36.19-.516.126-.188.316-.297.569-.33 1.992-.282 3.7-.689 5.123-1.222.442-.155.806-.25 1.09-.282h.143c.506 0 .759.298.759.894v16.259c0 1.848 1.249 2.772 3.747 2.772.537 0 .806.298.806.893 0 .438-.269.705-.806.798l-7.637.517c-.221 0-.348-.078-.38-.234-.03-.126-.047-.36-.047-.705v-2.632h-.094a57.41 57.41 0 0 1-2.23 1.972c-.569.44-1.312.815-2.23 1.129-.885.344-1.944.516-3.177.516Zm19.196-.423a.724.724 0 0 1-.57-.283 1.151 1.151 0 0 1-.19-.657c.032-.407.127-.643.285-.704.159-.095.443-.142.854-.142.822 0 1.407-.141 1.755-.423.348-.282.538-.611.569-.986.064-.377.095-.972.095-1.787v-10.76c0-.814-.031-1.409-.095-1.786-.031-.375-.221-.705-.569-.986s-.933-.423-1.755-.423c-.38 0-.664-.047-.853-.141-.19-.125-.285-.391-.285-.799 0-.188.063-.36.19-.516.126-.189.316-.298.569-.33 2.055-.313 3.747-.72 5.075-1.221.538-.157.901-.251 1.091-.282h.142c.506 0 .759.298.759.893v2.913h.142c1.107-1.097 2.23-1.958 3.368-2.584 1.139-.658 2.166-.987 3.083-.987 1.044 0 1.866.391 2.467 1.174.632.752.948 1.63.948 2.632 0 .877-.268 1.66-.806 2.349-.538.69-1.281 1.034-2.229 1.034a2.455 2.455 0 0 1-1.186-.282c-.316-.188-.49-.344-.522-.47.032-.062.19-.25.474-.564a1.79 1.79 0 0 0 .427-1.174c0-.565-.158-1.018-.474-1.362-.285-.346-.68-.517-1.186-.517-.537 0-1.217.265-2.039.798-.823.502-1.629 1.144-2.419 1.927v11.464c0 .815.031 1.41.094 1.787.064.375.269.704.617.986.348.282.933.423 1.755.423h.285c.253 0 .442.047.569.14.126.095.205.33.237.705 0 .251-.063.47-.19.658-.126.189-.316.283-.569.283a98.017 98.017 0 0 0-4.98-.142c-1.423 0-3.067.048-4.933.141v.001Zm73.667.423c-2.15 0-4.063-.502-5.739-1.505-1.676-1.033-2.988-2.38-3.937-4.04a11.085 11.085 0 0 1-1.375-5.357c0-2.35.553-4.386 1.66-6.108 1.107-1.755 2.514-3.087 4.221-3.995 1.708-.94 3.431-1.409 5.17-1.409 2.151 0 4.064.516 5.74 1.55a10.423 10.423 0 0 1 3.889 4.041 10.53 10.53 0 0 1 1.423 5.31c0 2.35-.569 4.401-1.707 6.156-1.107 1.723-2.514 3.053-4.222 3.993-1.707.91-3.415 1.364-5.123 1.364Zm0-1.739c2.151 0 3.716-.909 4.696-2.726 1.012-1.816 1.518-4.166 1.518-7.048 0-2.694-.522-4.886-1.565-6.579-1.012-1.722-2.562-2.583-4.649-2.583-2.181 0-3.762.893-4.743 2.678-.98 1.785-1.47 4.119-1.47 7.001 0 2.694.506 4.919 1.518 6.672 1.012 1.724 2.577 2.585 4.695 2.585Zm23.004 1.973c-1.55 0-2.878-.564-3.985-1.691-1.106-1.128-1.66-2.74-1.66-4.84V23.192l-2.751.094a.584.584 0 0 1-.474-.235 1.07 1.07 0 0 1-.19-.612c0-.282.048-.516.142-.704.127-.22.301-.345.522-.376 1.107-.219 1.961-.564 2.562-1.033.632-.503 1.091-1.035 1.375-1.598.285-.596.633-1.489 1.044-2.68.158-.406.506-.61 1.043-.61.221 0 .443.063.664.189.221.093.332.25.332.47l-.332 5.356 5.55-.33h.095c.411 0 .616.298.616.894 0 .344-.063.673-.19.986-.094.283-.221.424-.379.424l-5.312-.141V37.57c0 1.034.205 1.895.616 2.584.443.69 1.154 1.034 2.135 1.034.98 0 1.85-.173 2.608-.517.412-.157.664-.235.759-.235.222 0 .396.094.522.282.127.156.253.377.38.658.034.074.05.154.047.235 0 .125-.095.266-.285.423-.917.595-1.786.987-2.608 1.175-.791.218-1.74.328-2.846.328Zm-76.664-.94c.126.189.316.282.569.282a95.386 95.386 0 0 1 4.933-.14c2.119 0 4.095.047 5.929.14a.604.604 0 0 0 .522-.282c.126-.188.189-.407.189-.658-.031-.375-.11-.61-.237-.704-.095-.094-.284-.141-.569-.141h-.285c-1.043 0-1.786-.079-2.229-.235-.443-.156-.743-.439-.901-.846-.158-.438-.237-1.143-.237-2.114V23.284h5.028a.726.726 0 0 0 .569-.282.99.99 0 0 0 .237-.658c-.032-.375-.127-.61-.285-.704-.126-.126-.332-.19-.616-.19h-4.933v-2.817c0-1.504.063-2.82.189-3.948a7.569 7.569 0 0 1 1.091-3.196c.601-.97 1.534-1.455 2.799-1.455.145 0 .286.008.422.024a7.891 7.891 0 0 1 .104-1.572 8.097 8.097 0 0 0-.194-.003c-2.783.062-4.949 1.111-6.498 3.148-1.518 2.005-2.277 4.62-2.277 7.847v1.974h-2.846c-.411 0-.696.046-.854.14-.158.063-.253.314-.284.752 0 .251.063.47.189.658a.769.769 0 0 0 .617.283h3.178v14.613c0 .847-.032 1.457-.095 1.833-.031.345-.221.658-.569.94-.348.282-.933.423-1.755.423-.411 0-.696.047-.854.14-.126.063-.205.298-.237.705 0 .251.063.47.19.658Z"/><path fill-rule="evenodd" clip-rule="evenodd" d="M142.952 11.79a5.201 5.201 0 0 1-1.546 3.693 5.3 5.3 0 0 1-3.724 1.527 5.286 5.286 0 0 1-3.724-1.528 5.208 5.208 0 0 1-1.546-3.692c0-.687.137-1.366.402-2a5.228 5.228 0 0 1 1.143-1.694 5.276 5.276 0 0 1 3.725-1.528c.692 0 1.376.134 2.016.396a5.264 5.264 0 0 1 2.852 2.826c.265.634.402 1.313.402 2Zm-5.27 2.61a2.651 2.651 0 0 0 1.862-.764 2.614 2.614 0 0 0 .773-1.846 2.613 2.613 0 0 0-1.627-2.413 2.65 2.65 0 0 0-2.87.566 2.604 2.604 0 0 0-.773 1.846c.001.693.279 1.357.773 1.846.494.49 1.164.765 1.862.765Zm-2.31 4.881v25.176c0 .281.08.5.238.657.158.189.379.282.664.282.284 0 .521-.125.711-.375.19-.22.364-.549.522-.987.158-.439.3-.783.427-1.034h.237c2.055 1.535 4.49 2.302 7.304 2.302 1.898 0 3.684-.501 5.36-1.504a11.04 11.04 0 0 0 3.985-4.088c1.011-1.754 1.517-3.68 1.517-5.779 0-2.13-.442-4.025-1.328-5.686-.853-1.69-2.039-3.007-3.557-3.947-1.518-.94-3.21-1.409-5.075-1.409-1.139 0-2.293.235-3.463.705a8.896 8.896 0 0 0-3.083 2.02h-.142v-6.248a8.04 8.04 0 0 1-4.317-.085Zm14.325 21.84c-1.17 1.723-2.72 2.584-4.648 2.584-1.012 0-1.913-.22-2.704-.658-.759-.438-1.376-.955-1.85-1.55-.443-.627-.711-1.192-.806-1.692V27.401c1.359-1.442 3.035-2.163 5.028-2.163 2.245 0 3.936.878 5.075 2.632 1.138 1.723 1.707 3.806 1.707 6.249 0 2.913-.6 5.248-1.802 7.001ZM12.7 2.363a1.99 1.99 0 0 1 2.298 0c8.56 6.058 12.44 13.319 12.685 23.738.113 4.974-.37 9.53-1.841 13.464-1.51 3.938-4.193 7.575-8.143 10.647a1.986 1.986 0 0 1-1.76.337c-1.21-.344-1.416-1.765-2.09-2.65-.674.885-.878 2.305-2.09 2.65A1.994 1.994 0 0 1 10 50.212c-3.95-3.071-6.634-6.708-8.143-10.646-1.47-3.935-1.954-8.49-1.841-13.464C.26 15.682 4.14 8.42 12.7 2.364Zm4.426 43.362c2.472-2.253 3.962-4.71 5.014-7.534 1.325-3.454 1.707-7.27 1.592-12-.19-8.124-2.11-13.41-7.923-18.318V22.23c2.273.58 3.293 2.789 3.293 5.22 0 2.433-1.02 4.642-3.293 5.222V44.42s1.056.965 1.317 1.306Zm-6.588 0c-2.472-2.253-3.927-4.71-4.98-7.534-1.324-3.454-1.706-7.27-1.59-12 .19-8.107 2.099-13.416 7.888-18.318V22.23c-2.273.58-3.294 2.789-3.294 5.22 0 2.433 1.02 4.642 3.294 5.222V44.42s-1.066.977-1.318 1.306Zm3.294-20.885c-.698 0-1.368.274-1.862.764a2.603 2.603 0 0 0-.773 1.846c0 1.443 1.18 2.611 2.635 2.611.698 0 1.368-.274 1.862-.763.494-.49.772-1.154.773-1.847 0-1.442-1.18-2.61-2.635-2.61Z"/></g><defs><clipPath id="a"><path fill="#fff" d="M0 0h200v48.626H0z"/></clipPath></defs></svg>